<svg width="225" height="97" viewBox="0 0 225 97" fill="none" xmlns="http://www.w3.org/2000/svg">
<path d="M76.4679 57.8963C76.3216 58.0397 76.2365 58.2328 76.2301 58.4361C76.23 58.5453 76.2518 58.6534 76.2944 58.7542C76.3369 58.855 76.3994 58.9464 76.478 59.0233C76.5567 59.1002 76.65 59.1609 76.7526 59.202C76.8552 59.2431 76.9651 59.2637 77.0758 59.2627H77.668C77.9109 59.2635 78.1515 59.2169 78.376 59.1256C78.6005 59.0344 78.8045 58.9002 78.9762 58.731C79.148 58.5617 79.284 58.3607 79.3766 58.1394C79.4692 57.9181 79.5165 57.6809 79.5157 57.4415C79.4633 51.9119 74.5504 48.611 71.8212 47.3696C68.8047 45.9973 62.4237 46.7978 55.4626 46.4547C48.5015 46.1117 48.9659 42.339 49.778 30.6747C50.5901 19.0104 45.0213 12.1496 43.1655 11.2348C41.3096 10.3199 41.0772 12.1496 41.0772 12.1496C40.2647 11.3488 38.8728 11.4635 38.7568 12.7214C38.6408 13.9793 42.3534 18.439 40.033 18.3247C37.7126 18.2104 35.7403 20.1543 35.5082 21.1834C35.3215 22.0125 32.1183 23.212 30.9685 23.6478C30.8185 23.7018 30.6906 23.8029 30.6044 23.9354C30.5183 24.068 30.4787 24.2248 30.4917 24.3817L30.6865 28.1968C30.6576 28.6301 31.1976 29.0155 31.631 29.0898L39.1048 30.446C25.9948 50.3434 40.2651 63.7225 40.2651 63.7225L41.3092 83.8485H39.8585C39.7067 83.8484 39.5566 83.8792 39.4175 83.9389C39.2784 83.9987 39.1533 84.0861 39.0502 84.1958C38.947 84.3055 38.868 84.435 38.818 84.5762C38.768 84.7174 38.7482 84.8673 38.7598 85.0164C38.786 85.2935 38.9171 85.5507 39.1269 85.7368C39.3368 85.923 39.61 86.0246 39.8923 86.0213H44.9052L46.5678 77.9358C46.5724 77.9143 46.584 77.8949 46.6009 77.8805C46.6178 77.8662 46.639 77.8578 46.6612 77.8566C46.6835 77.8554 46.7055 77.8616 46.7239 77.874C46.7422 77.8865 46.7559 77.9046 46.7627 77.9255L48.7338 84.0777H48.2118C47.9516 84.0778 47.7021 84.1791 47.5174 84.3596C47.3327 84.5402 47.2278 84.7853 47.2255 85.0417C47.2317 85.3043 47.3421 85.5539 47.533 85.7371C47.7239 85.9203 47.9801 86.0223 48.2465 86.0213H52.0984V66.9288C52.0983 66.8863 52.1075 66.8443 52.1254 66.8056C52.1433 66.7669 52.1694 66.7325 52.202 66.7046C52.2346 66.6768 52.2729 66.6562 52.3143 66.6443C52.3557 66.6323 52.3993 66.6293 52.442 66.6355C57.9629 67.4541 61.9145 65.5376 63.0989 64.8621C63.1402 64.8388 63.1866 64.8255 63.2342 64.8235C63.2818 64.8215 63.3291 64.8307 63.3723 64.8505C63.4156 64.8703 63.4533 64.9 63.4825 64.9371C63.5116 64.9742 63.5313 65.0177 63.5399 65.0639C64.2959 68.9194 67.6447 71.1555 67.6447 71.1555V83.963H65.9045C65.777 83.9628 65.6508 83.9886 65.5339 84.0386C65.4169 84.0887 65.3117 84.162 65.2248 84.254C65.1379 84.346 65.0712 84.4546 65.0289 84.5732C64.9865 84.6917 64.9694 84.8176 64.9787 84.9429C65.001 85.1775 65.1121 85.3952 65.2899 85.5526C65.4678 85.7101 65.6993 85.7957 65.9383 85.7925H71.1253L73.0977 78.8171L75.186 84.0773H74.7219C74.5944 84.0771 74.4682 84.1029 74.3513 84.153C74.2344 84.2031 74.1291 84.2764 74.0423 84.3684C73.9554 84.4604 73.8887 84.569 73.8463 84.6876C73.804 84.8061 73.7869 84.932 73.7961 85.0574C73.8184 85.2919 73.9295 85.5096 74.1073 85.6671C74.2851 85.8245 74.5166 85.9102 74.7556 85.907H78.4345L78.6664 70.0119C73.7938 67.3818 74.9539 62.4647 75.3019 58.1193C75.65 53.7738 70.1972 48.6281 70.1972 48.6281C77.5063 50.572 78.0859 57.6619 78.0859 57.6619H77.0418C76.9352 57.6617 76.8296 57.6823 76.7311 57.7225C76.6326 57.7628 76.5431 57.8218 76.4679 57.8963ZM40.9607 13.0645C41.5407 12.8357 41.1926 14.4367 41.1926 14.4367C40.6126 13.9792 40.3805 13.2931 40.9607 13.0645ZM40.7866 61.3784C40.7866 61.3784 33.0714 53.4308 35.5077 42.9104C37.9441 32.39 42.933 28.5021 42.4688 27.2442C42.0047 25.9863 40.6126 27.4728 39.8585 29.131C39.8585 29.131 32.5493 28.2161 32.2013 27.53C31.8532 26.8439 31.5052 25.243 32.5493 24.7856C33.5935 24.3282 35.7978 23.8708 36.6099 22.0411C37.422 20.2114 39.8585 19.7541 41.2507 19.6397C42.6429 19.5253 43.223 19.411 42.9909 17.9244C42.7798 16.5682 42.375 14.5453 42.6579 13.4201C42.6658 13.3898 42.6821 13.3623 42.7049 13.3407C42.7278 13.3191 42.7563 13.3041 42.7873 13.2976C42.8183 13.2911 42.8505 13.2932 42.8803 13.3037C42.9102 13.3142 42.9364 13.3327 42.9562 13.3572C43.7451 14.3212 46.6953 18.1589 48.0958 23.1847C49.7199 29.0167 45.3113 43.3107 50.648 46.6271C50.648 46.6271 42.9909 53.2593 40.7866 61.3784ZM43.3468 84.306C43.1425 84.3061 42.9462 84.2278 42.7994 84.0877C42.6527 83.9476 42.567 83.7567 42.5606 83.5555L42.0049 66.4674C42.0049 66.4674 45.0214 71.842 45.6015 73.3285C46.0924 74.5868 44.5888 81.5789 44.1152 83.6977C44.0767 83.8702 43.9795 84.0246 43.8397 84.1353C43.7 84.2459 43.5261 84.3061 43.3468 84.306ZM69.8043 84.306C69.6315 84.306 69.4659 84.2383 69.3437 84.1179C69.2216 83.9975 69.1529 83.8342 69.1529 83.664V73.2138C69.6169 72.642 71.4733 75.7296 71.8213 76.4157C72.1142 76.9932 70.8458 82.1874 70.4366 83.8183C70.4017 83.9576 70.3205 84.0813 70.2059 84.1697C70.0913 84.2581 69.9498 84.3061 69.8043 84.306ZM73.6775 57.3188C74.0257 61.4355 72.1693 65.0943 74.49 67.7248C76.8106 70.3553 77.2744 70.2406 77.2744 71.7273C77.2744 73.0788 76.9867 82.3677 76.9344 84.0464C76.9333 84.0824 76.9248 84.1178 76.9094 84.1505C76.8941 84.1832 76.8722 84.2125 76.8452 84.2366C76.8181 84.2608 76.7864 84.2794 76.7518 84.2912C76.7173 84.303 76.6808 84.3079 76.6443 84.3055C76.5876 84.3001 76.5338 84.2781 76.4898 84.2423C76.4459 84.2065 76.4139 84.1586 76.3978 84.1047C75.9633 82.7636 73.3987 75.101 70.5449 72.1846C67.5332 69.1062 64.4135 66.555 64.9007 59.5527C64.9095 59.4449 64.8961 59.3364 64.8612 59.2339C64.8264 59.1313 64.7709 59.0368 64.6981 58.9559C64.6252 58.875 64.5366 58.8095 64.4374 58.7633C64.3382 58.7171 64.2305 58.6911 64.1209 58.6869C64.0112 58.6827 63.9019 58.7005 63.7994 58.739C63.6969 58.7776 63.6033 58.8362 63.5244 58.9113C63.4454 58.9864 63.3827 59.0765 63.34 59.1761C63.2973 59.2757 63.2754 59.3828 63.2758 59.4909V59.5195C63.313 60.5967 63.3245 62.3783 63.0044 62.6939C62.5402 63.1514 58.5956 65.667 54.0709 65.324C50.5185 65.0542 49.4696 60.9786 49.1819 59.2393C49.1443 59.0104 49.0207 58.8037 48.8356 58.6604C48.6506 58.517 48.4176 58.4476 48.183 58.4657C47.9484 58.4838 47.7293 58.5883 47.5692 58.7583C47.409 58.9283 47.3196 59.1514 47.3187 59.3833C47.3189 59.4538 47.3271 59.524 47.3431 59.5927C47.724 61.2186 48.5986 64.1618 50.1428 65.4281C50.3885 65.6282 50.5851 65.8805 50.7177 66.1662C50.8503 66.4518 50.9156 66.7634 50.9085 67.0775L50.4829 83.8487C50.4805 83.9404 50.4419 84.0276 50.3753 84.0917C50.3086 84.1558 50.2192 84.1916 50.126 84.1916C50.126 84.1916 46.7615 71.1555 45.3692 68.6397C44.3227 66.7484 42.7507 64.4678 42.0348 63.4539C41.917 63.2867 41.842 63.094 41.8161 62.892C41.7903 62.6901 41.8144 62.485 41.8863 62.2943C42.5511 60.5321 44.6186 55.4583 47.4575 52.2874C50.9381 48.3996 52.2143 47.2558 52.7943 47.7133C53.3743 48.1707 65.5563 47.3702 67.8773 49.0855C70.1983 50.8007 73.3295 53.2021 73.6775 57.3188Z" fill="#3C6575"/>
<path d="M39.6261 24.1568C40.2349 24.1568 40.7283 23.6704 40.7283 23.0704C40.7283 22.4704 40.2349 21.984 39.6261 21.984C39.0174 21.984 38.5239 22.4704 38.5239 23.0704C38.5239 23.6704 39.0174 24.1568 39.6261 24.1568Z" fill="#3C6575"/>
<path d="M116.721 68.6397L94.0391 68.6969V67.7389C96.3728 67.7389 97.9449 66.7134 97.9449 64.7974V41.5324C97.9449 39.5708 96.3724 38.2481 94.0391 38.2481V37.2901L105.356 37.1758V38.1338C103.213 38.1338 101.04 39.411 101.04 41.19V64.5463C101.04 66.3711 102.231 66.9178 104.089 66.9178H109.759C114.523 66.9178 114.666 64.9205 116.953 59.7202L117.359 59.6865L116.721 68.6397Z" fill="#3C6575"/>
<path d="M137.941 67.38C137.016 68.5206 136.022 69.1543 134.529 69.1543C132.788 69.1543 132.219 67.5914 132.042 66.07H131.9C130.478 67.6756 128.453 69.1543 126.214 69.1543C123.869 69.1543 121.417 67.5487 121.417 63.9576C121.417 58.5916 126.925 57.1974 132.006 56.2677V53.8173C132.006 51.1978 130.869 49.719 128.666 49.719C127.031 49.719 125.895 50.3528 125.895 51.3667C125.895 52.0426 126.214 52.3808 126.214 53.3526C126.214 54.62 125.539 55.6764 124.224 55.6764C122.98 55.6764 122.199 54.4088 122.199 53.0569C122.199 50.0991 125.219 48.1135 128.915 48.1135C132.752 48.1135 136.022 49.8457 136.022 55.127V64.8444C136.022 65.9007 136.235 66.8722 136.981 66.8722C137.408 66.8722 137.727 66.365 137.941 66.1115C138.154 65.8158 138.474 65.9849 138.474 66.3229C138.474 66.5347 138.189 67.0839 137.941 67.38ZM132.006 57.5777C128.382 58.2115 125.575 60.1127 125.575 63.4933C125.575 65.6905 126.676 66.7468 128.062 66.7468C129.909 66.7468 132.006 64.5076 132.006 63.2821L132.006 57.5777Z" fill="#3C6575"/>
<path d="M193.977 67.38C193.053 68.5206 192.058 69.1543 190.566 69.1543C188.825 69.1543 188.256 67.5914 188.079 66.07H187.937C186.515 67.6756 184.49 69.1543 182.251 69.1543C179.906 69.1543 177.454 67.5487 177.454 63.9576C177.454 58.5916 182.962 57.1974 188.043 56.2677V53.8173C188.043 51.1978 186.906 49.719 184.703 49.719C183.068 49.719 181.931 50.3528 181.931 51.3667C181.931 52.0426 182.251 52.3808 182.251 53.3526C182.251 54.62 181.576 55.6764 180.261 55.6764C179.017 55.6764 178.235 54.4088 178.235 53.0569C178.235 50.0991 181.256 48.1135 184.951 48.1135C188.789 48.1135 192.058 49.8457 192.058 55.127V64.8444C192.058 65.9007 192.271 66.8722 193.018 66.8722C193.444 66.8722 193.764 66.365 193.977 66.1115C194.19 65.8158 194.51 65.9849 194.51 66.3229C194.51 66.5347 194.226 67.0839 193.977 67.38ZM188.043 57.5777C184.418 58.2115 181.611 60.1127 181.611 63.4933C181.611 65.6905 182.713 66.7468 184.098 66.7468C185.946 66.7468 188.043 64.5076 188.043 63.2821L188.043 57.5777Z" fill="#3C6575"/>
<path d="M173.765 68.6969H165.705C165.593 68.6969 165.486 68.6532 165.407 68.5755C165.328 68.4978 165.284 68.3924 165.284 68.2824V68.1489C165.285 68.049 165.322 67.9527 165.388 67.8775C165.455 67.8023 165.547 67.7531 165.647 67.7389C166.703 67.5776 167.335 66.7045 167.335 65.5223V54.2628C167.335 52.104 166.186 50.4525 164.217 50.4525C162.125 50.4525 160.156 52.2726 160.156 54.8123V65.5216C160.156 66.7002 160.785 67.5716 161.805 67.7367C161.905 67.7515 161.996 67.8009 162.062 67.8761C162.128 67.9512 162.165 68.0472 162.166 68.1467V68.2818C162.166 68.3917 162.122 68.4971 162.043 68.5749C161.964 68.6526 161.857 68.6963 161.745 68.6963H153.89C153.778 68.6963 153.671 68.6526 153.592 68.5749C153.514 68.4971 153.469 68.3917 153.469 68.2818V68.1482C153.47 68.0484 153.507 67.9521 153.574 67.8768C153.64 67.8016 153.732 67.7524 153.832 67.7383C154.887 67.5768 155.52 66.7037 155.52 65.5216V54.2628C155.52 52.104 154.495 50.4525 152.362 50.4525C150.229 50.4525 148.342 52.4416 148.342 54.9394V65.5216C148.342 66.7532 148.517 67.6494 149.591 67.7547C149.66 67.7605 149.727 67.7827 149.785 67.8195C149.844 67.8562 149.892 67.9063 149.927 67.9656C149.963 68.0287 149.981 68.0999 149.98 68.1722C149.98 68.2444 149.96 68.3153 149.923 68.3776C149.885 68.44 149.832 68.4917 149.769 68.5276C149.705 68.5636 149.633 68.5825 149.56 68.5825H142.375C142.264 68.5825 142.157 68.5388 142.078 68.4611C141.999 68.3833 141.955 68.2779 141.955 68.168V68.1485C141.956 68.0483 141.993 67.9517 142.06 67.8764C142.127 67.801 142.219 67.7519 142.32 67.7379C143.491 67.5571 144.17 66.5048 144.17 65.1961V51.694C144.17 50.3391 143.168 50.5879 141.995 50.6598C141.938 50.6631 141.88 50.6549 141.826 50.6356C141.772 50.6163 141.723 50.5863 141.681 50.5475C141.64 50.5088 141.606 50.462 141.584 50.4101C141.561 50.3582 141.549 50.3022 141.549 50.2457V50.0778C141.549 49.9923 141.576 49.9089 141.626 49.839C141.676 49.7691 141.747 49.7162 141.829 49.6875L146.549 48.0274C146.613 48.0049 146.681 47.998 146.749 48.0073C146.816 48.0165 146.88 48.0416 146.935 48.0805C146.99 48.1193 147.035 48.1707 147.066 48.2303C147.096 48.2899 147.112 48.3559 147.111 48.4227L147.066 52.0823H147.189C148.092 50.8971 151.337 47.9978 154.373 47.9978C156.834 47.9978 158.845 49.3946 159.665 51.638H159.788C160.772 49.9448 162.865 47.9978 166.147 47.9978C169.1 47.9978 171.972 50.0719 171.972 54.2621V65.3098C171.972 66.6192 172.651 67.5784 173.824 67.7407C173.924 67.7543 174.017 67.8033 174.083 67.8786C174.15 67.9539 174.187 68.0504 174.187 68.1504V68.2818C174.187 68.3364 174.176 68.3904 174.155 68.4409C174.134 68.4913 174.103 68.5372 174.064 68.5757C174.025 68.6143 173.978 68.6449 173.927 68.6657C173.876 68.6865 173.821 68.6971 173.765 68.6969Z" fill="#3C6575"/>
<path d="M98.7931 81.1013H94.9304V84.6159H93.9697V76.7299H94.9304V80.1209H98.7931V76.7299H99.7537V84.6159H98.7931V81.1013Z" fill="#393837"/>
<path d="M105.612 76.7299H110.358V77.7103H106.573V80.1324H109.945V81.0898H106.573V83.636H110.492V84.6159H105.612V76.7299Z" fill="#393837"/>
<path d="M117.918 76.7299H118.869L121.924 84.6159H120.915L120.175 82.6445H116.602L115.862 84.6159H114.872L117.918 76.7299ZM119.839 81.7434L118.388 77.879L116.938 81.7434H119.839Z" fill="#393837"/>
<path d="M126.764 76.7299H127.725V83.636H131.366V84.6159H126.764V76.7299Z" fill="#393837"/>
<path d="M136.918 77.7103H134.612V76.7299H140.175V77.7103H137.87V84.6159H136.919L136.918 77.7103Z" fill="#393837"/>
<path d="M149.886 81.1013H146.024V84.6159H145.064V76.7299H146.025V80.1209H149.886V76.7299H150.847V84.6159H149.886V81.1013Z" fill="#393837"/>
<path d="M156.159 80.6732C156.159 78.341 157.676 76.6401 159.723 76.6401C160.218 76.6279 160.708 76.733 161.153 76.9467C161.597 77.1605 161.984 77.4764 162.278 77.8681L161.654 78.5775C161.135 77.9355 160.501 77.6425 159.762 77.6425C158.243 77.6425 157.119 78.9268 157.119 80.6732C157.119 82.4196 158.243 83.7034 159.762 83.7034C160.501 83.7034 161.135 83.3995 161.654 82.7573L162.278 83.4669C161.983 83.8612 161.596 84.1796 161.149 84.3954C160.703 84.6112 160.211 84.718 159.713 84.7069C157.676 84.7062 156.159 83.0049 156.159 80.6732Z" fill="#393837"/>
<path d="M169.262 76.7299H170.213L173.268 84.6159H172.259L171.519 82.6445H167.945L167.205 84.6159H166.216L169.262 76.7299ZM171.183 81.7434L169.732 77.879L168.282 81.7434H171.183Z" fill="#393837"/>
<path d="M178.108 76.7299H180.731C182.48 76.7299 183.536 77.7662 183.536 79.4787C183.536 80.7066 182.998 81.5743 182.056 81.9685L183.651 84.6163H182.604L181.153 82.194C181.019 82.205 180.884 82.2165 180.731 82.2165H179.07V84.6159H178.109L178.108 76.7299ZM180.702 81.2589C181.932 81.2589 182.576 80.6053 182.576 79.4787C182.576 78.352 181.932 77.7103 180.702 77.7103H179.07V81.2589H180.702Z" fill="#393837"/>
<path d="M188.935 76.7299H193.68V77.7103H189.895V80.1324H193.267V81.0898H189.895V83.636H193.815V84.6159H188.935V76.7299Z" fill="#393837"/>
</svg>
