<svg width="246" height="107" viewBox="0 0 246 107" fill="none" xmlns="http://www.w3.org/2000/svg">
<path d="M83.605 63.8651C83.445 64.0233 83.3519 64.2363 83.3449 64.4606C83.3448 64.581 83.3687 64.7002 83.4152 64.8114C83.4618 64.9226 83.53 65.0235 83.616 65.1083C83.702 65.1931 83.804 65.2601 83.9162 65.3055C84.0284 65.3508 84.1485 65.3735 84.2696 65.3724H84.9171C85.1826 65.3732 85.4457 65.3218 85.6911 65.2212C85.9366 65.1205 86.1596 64.9726 86.3474 64.7859C86.5352 64.5991 86.6839 64.3774 86.7851 64.1332C86.8864 63.8891 86.9381 63.6275 86.9372 63.3635C86.8799 57.2638 81.5085 53.6226 78.5245 52.2532C75.2265 50.7395 68.25 51.6224 60.6392 51.244C53.0283 50.8656 53.5361 46.704 54.424 33.8372C55.3118 20.9704 49.2233 13.4023 47.1943 12.3932C45.1652 11.384 44.9111 13.4023 44.9111 13.4023C44.0228 12.519 42.5009 12.6455 42.3741 14.0331C42.2473 15.4206 46.3064 20.3401 43.7695 20.214C41.2325 20.0879 39.0761 22.2322 38.8224 23.3674C38.6182 24.282 35.1161 25.6052 33.859 26.0859C33.6949 26.1455 33.5551 26.2569 33.4609 26.4032C33.3667 26.5494 33.3234 26.7223 33.3376 26.8954L33.5507 31.1038C33.519 31.5818 34.1094 32.0069 34.5832 32.0889L42.7547 33.5849C28.421 55.5335 44.0232 70.292 44.0232 70.292L45.1648 92.4928H43.5786C43.4127 92.4927 43.2486 92.5266 43.0965 92.5925C42.9444 92.6585 42.8077 92.7549 42.6949 92.8759C42.5821 92.9969 42.4957 93.1398 42.441 93.2955C42.3864 93.4513 42.3647 93.6166 42.3774 93.7811C42.4061 94.0867 42.5494 94.3705 42.7788 94.5758C43.0082 94.7812 43.3069 94.8932 43.6156 94.8896H49.0964L50.9142 85.9706C50.9191 85.9468 50.9318 85.9254 50.9503 85.9096C50.9688 85.8938 50.992 85.8845 51.0163 85.8832C51.0406 85.8819 51.0647 85.8887 51.0848 85.9024C51.1049 85.9161 51.1198 85.9361 51.1273 85.9592L53.2824 92.7456H52.7116C52.4272 92.7457 52.1543 92.8575 51.9524 93.0567C51.7504 93.2558 51.6358 93.5262 51.6333 93.809C51.64 94.0986 51.7607 94.3741 51.9694 94.5761C52.1782 94.7782 52.4583 94.8907 52.7495 94.8896H56.9609V73.8288C56.9608 73.7819 56.9709 73.7356 56.9905 73.6929C57.01 73.6502 57.0386 73.6122 57.0742 73.5815C57.1099 73.5508 57.1518 73.5281 57.1971 73.5149C57.2423 73.5018 57.2899 73.4985 57.3366 73.5053C63.3728 74.4083 67.6932 72.2942 68.9881 71.5491C69.0333 71.5233 69.084 71.5087 69.1361 71.5065C69.1881 71.5043 69.2399 71.5145 69.2871 71.5363C69.3344 71.5581 69.3757 71.5908 69.4076 71.6318C69.4394 71.6727 69.461 71.7207 69.4704 71.7716C70.2969 76.0247 73.9583 78.4912 73.9583 78.4912V92.6191H72.0556C71.9162 92.6189 71.7782 92.6473 71.6504 92.7025C71.5225 92.7578 71.4075 92.8387 71.3125 92.9401C71.2175 93.0416 71.1446 93.1614 71.0982 93.2922C71.0519 93.4229 71.0333 93.5618 71.0434 93.7001C71.0678 93.9588 71.1893 94.199 71.3837 94.3726C71.5781 94.5463 71.8312 94.6408 72.0926 94.6373H77.7637L79.9201 86.9427L82.2033 92.7452H81.696C81.5566 92.745 81.4187 92.7734 81.2908 92.8287C81.1629 92.8839 81.0479 92.9648 80.9529 93.0663C80.8579 93.1678 80.785 93.2876 80.7387 93.4184C80.6924 93.5492 80.6737 93.688 80.6838 93.8263C80.7082 94.085 80.8296 94.3252 81.024 94.4989C81.2185 94.6725 81.4715 94.767 81.7328 94.7635H85.7551L86.0087 77.2297C80.6812 74.3285 81.9496 68.9045 82.3301 64.1111C82.7107 59.3176 76.7489 53.6414 76.7489 53.6414C84.7403 55.7857 85.374 63.6066 85.374 63.6066H84.2324C84.1158 63.6063 84.0004 63.6291 83.8927 63.6735C83.785 63.7178 83.6872 63.783 83.605 63.8651ZM44.7837 14.4115C45.4178 14.1592 45.0373 15.9252 45.0373 15.9252C44.4032 15.4205 44.1494 14.6637 44.7837 14.4115ZM44.5934 67.7062C44.5934 67.7062 36.1581 58.9393 38.8218 47.3343C41.4855 35.7293 46.9401 31.4406 46.4326 30.053C45.9252 28.6654 44.4032 30.3052 43.5786 32.1343C43.5786 32.1343 35.5873 31.1251 35.2067 30.3683C34.8262 29.6115 34.4457 27.8455 35.5873 27.341C36.7289 26.8365 39.139 26.3318 40.0269 24.3135C40.9147 22.2951 43.5786 21.7908 45.1008 21.6645C46.6229 21.5383 47.2572 21.4122 47.0034 19.7725C46.7726 18.2765 46.33 16.045 46.6394 14.8037C46.648 14.7704 46.6658 14.74 46.6908 14.7162C46.7157 14.6923 46.7469 14.6758 46.7808 14.6686C46.8147 14.6614 46.8499 14.6638 46.8825 14.6754C46.9152 14.687 46.9439 14.7074 46.9655 14.7343C47.828 15.7978 51.0536 20.0311 52.5848 25.575C54.3605 32.0082 49.5404 47.7758 55.3752 51.4342C55.3752 51.4342 47.0034 58.7501 44.5934 67.7062ZM47.3926 92.9975C47.1692 92.9976 46.9545 92.9112 46.7941 92.7567C46.6336 92.6022 46.54 92.3916 46.5329 92.1696L45.9254 73.3199C45.9254 73.3199 49.2234 79.2485 49.8577 80.8883C50.3944 82.2763 48.7505 89.9892 48.2327 92.3264C48.1906 92.5168 48.0843 92.6871 47.9315 92.8091C47.7787 92.9312 47.5885 92.9976 47.3926 92.9975ZM76.3194 92.9975C76.1305 92.9975 75.9494 92.9228 75.8158 92.79C75.6823 92.6572 75.6072 92.4771 75.6072 92.2893V80.7617C76.1145 80.131 78.1441 83.5369 78.5247 84.2937C78.8449 84.9308 77.4581 90.6604 77.0107 92.4595C76.9725 92.6131 76.8837 92.7496 76.7585 92.8471C76.6332 92.9446 76.4785 92.9976 76.3194 92.9975ZM80.5541 63.2281C80.9348 67.7692 78.9052 71.8052 81.4424 74.7069C83.9796 77.6086 84.4867 77.4821 84.4867 79.122C84.4867 80.6129 84.1722 90.8594 84.115 92.7111C84.1138 92.7508 84.1045 92.7899 84.0877 92.8259C84.0709 92.862 84.047 92.8943 84.0174 92.921C83.9878 92.9476 83.9531 92.9681 83.9154 92.9812C83.8777 92.9942 83.8377 92.9996 83.7978 92.9969C83.7358 92.991 83.677 92.9667 83.6289 92.9272C83.5809 92.8877 83.5459 92.8349 83.5283 92.7754C83.0532 91.296 80.2492 82.8435 77.1292 79.6265C73.8363 76.2307 70.4254 73.4165 70.9581 65.6923C70.9677 65.5734 70.9531 65.4537 70.915 65.3406C70.8769 65.2275 70.8163 65.1232 70.7366 65.034C70.657 64.9447 70.56 64.8725 70.4516 64.8215C70.3431 64.7705 70.2254 64.7418 70.1055 64.7372C69.9857 64.7327 69.8661 64.7522 69.754 64.7947C69.6419 64.8373 69.5397 64.9019 69.4533 64.9848C69.367 65.0676 69.2985 65.167 69.2518 65.2769C69.205 65.3867 69.1812 65.5049 69.1815 65.6242V65.6557C69.2222 66.8439 69.2348 68.8092 68.8848 69.1573C68.3773 69.662 64.0645 72.437 59.1176 72.0586C55.2336 71.7609 54.0869 67.2652 53.7722 65.3466C53.7311 65.094 53.596 64.8661 53.3937 64.708C53.1913 64.5499 52.9366 64.4732 52.6801 64.4932C52.4236 64.5132 52.184 64.6284 52.009 64.8159C51.8339 65.0035 51.7362 65.2496 51.7352 65.5055C51.7354 65.5832 51.7443 65.6607 51.7618 65.7364C52.1783 67.5299 53.1345 70.7766 54.8228 72.1734C55.0915 72.3941 55.3064 72.6724 55.4514 72.9876C55.5964 73.3027 55.6677 73.6464 55.66 73.9928L55.1946 92.493C55.1921 92.5942 55.1499 92.6904 55.077 92.7611C55.0041 92.8318 54.9063 92.8713 54.8045 92.8713C54.8045 92.8713 51.126 78.4912 49.6037 75.7161C48.4595 73.6298 46.7408 71.1141 45.9581 69.9956C45.8293 69.8113 45.7472 69.5986 45.719 69.3759C45.6907 69.1531 45.7171 68.9269 45.7958 68.7165C46.5226 66.7727 48.783 61.1758 51.8869 57.678C55.6924 53.3894 57.0877 52.1276 57.7218 52.6323C58.356 53.1369 71.6749 52.2539 74.2126 54.146C76.7502 56.038 80.1736 58.687 80.5541 63.2281Z" fill="white"/>
<path d="M43.3247 26.6472C43.9902 26.6472 44.5298 26.1107 44.5298 25.4489C44.5298 24.787 43.9902 24.2505 43.3247 24.2505C42.6592 24.2505 42.1196 24.787 42.1196 25.4489C42.1196 26.1107 42.6592 26.6472 43.3247 26.6472Z" fill="white"/>
<path d="M127.614 75.7159L102.816 75.779V74.7223C105.367 74.7223 107.086 73.591 107.086 71.4775V45.814C107.086 43.6502 105.367 42.1911 102.816 42.1911V41.1344L115.189 41.0083V42.065C112.846 42.065 110.471 43.474 110.471 45.4363V71.2005C110.471 73.2134 111.772 73.8166 113.804 73.8166H120.004C125.211 73.8166 125.368 71.6133 127.868 65.8769L128.312 65.8397L127.614 75.7159Z" fill="white"/>
<path d="M150.815 74.3264C149.805 75.5846 148.717 76.2836 147.085 76.2836C145.182 76.2836 144.56 74.5596 144.366 72.8814H144.211C142.656 74.6525 140.443 76.2836 137.994 76.2836C135.43 76.2836 132.75 74.5125 132.75 70.5512C132.75 64.632 138.771 63.0941 144.327 62.0686V59.3655C144.327 56.4759 143.084 54.8447 140.675 54.8447C138.888 54.8447 137.645 55.5439 137.645 56.6623C137.645 57.4079 137.994 57.7809 137.994 58.8529C137.994 60.251 137.256 61.4163 135.819 61.4163C134.459 61.4163 133.604 60.018 133.604 58.5267C133.604 55.264 136.907 53.0737 140.947 53.0737C145.143 53.0737 148.717 54.9845 148.717 60.8102V71.5295C148.717 72.6946 148.95 73.7663 149.766 73.7663C150.233 73.7663 150.582 73.2068 150.815 72.9271C151.048 72.601 151.398 72.7875 151.398 73.1604C151.398 73.394 151.087 73.9999 150.815 74.3264ZM144.327 63.5136C140.364 64.2127 137.295 66.31 137.295 70.039C137.295 72.4628 138.5 73.628 140.014 73.628C142.035 73.628 144.327 71.1579 144.327 69.8061L144.327 63.5136Z" fill="white"/>
<path d="M212.082 74.3264C211.072 75.5846 209.984 76.2836 208.352 76.2836C206.449 76.2836 205.827 74.5596 205.633 72.8814H205.477C203.923 74.6525 201.709 76.2836 199.261 76.2836C196.697 76.2836 194.016 74.5125 194.016 70.5512C194.016 64.632 200.038 63.0941 205.594 62.0686V59.3655C205.594 56.4759 204.35 54.8447 201.942 54.8447C200.155 54.8447 198.912 55.5439 198.912 56.6623C198.912 57.4079 199.261 57.7809 199.261 58.8529C199.261 60.251 198.523 61.4163 197.085 61.4163C195.726 61.4163 194.871 60.018 194.871 58.5267C194.871 55.264 198.173 53.0737 202.214 53.0737C206.41 53.0737 209.984 54.9845 209.984 60.8102V71.5295C209.984 72.6946 210.217 73.7663 211.033 73.7663C211.499 73.7663 211.849 73.2068 212.082 72.9271C212.315 72.601 212.665 72.7875 212.665 73.1604C212.665 73.394 212.354 73.9999 212.082 74.3264ZM205.594 63.5136C201.631 64.2127 198.562 66.31 198.562 70.039C198.562 72.4628 199.766 73.628 201.281 73.628C203.301 73.628 205.594 71.1579 205.594 69.8061L205.594 63.5136Z" fill="white"/>
<path d="M189.984 75.7791H181.17C181.048 75.7791 180.932 75.7309 180.845 75.6452C180.759 75.5594 180.711 75.4431 180.711 75.3219V75.1746C180.711 75.0644 180.752 74.9582 180.825 74.8752C180.897 74.7922 180.998 74.738 181.107 74.7223C182.262 74.5444 182.953 73.5812 182.953 72.2771V59.8569C182.953 57.4755 181.697 55.6538 179.544 55.6538C177.257 55.6538 175.104 57.6616 175.104 60.4631V72.2764C175.104 73.5765 175.792 74.5378 176.907 74.7199C177.016 74.7362 177.116 74.7908 177.188 74.8736C177.26 74.9565 177.301 75.0624 177.302 75.1721V75.3212C177.302 75.4424 177.253 75.5587 177.167 75.6445C177.081 75.7302 176.964 75.7784 176.842 75.7784H168.253C168.131 75.7784 168.014 75.7302 167.928 75.6445C167.842 75.5587 167.793 75.4424 167.793 75.3212V75.1738C167.794 75.0637 167.834 74.9575 167.907 74.8745C167.98 74.7915 168.081 74.7372 168.19 74.7216C169.344 74.5435 170.036 73.5804 170.036 72.2764V59.8569C170.036 57.4755 168.914 55.6538 166.583 55.6538C164.251 55.6538 162.187 57.848 162.187 60.6033V72.2764C162.187 73.6349 162.379 74.6236 163.553 74.7397C163.628 74.7461 163.701 74.7707 163.765 74.8112C163.829 74.8517 163.882 74.907 163.92 74.9724C163.959 75.042 163.979 75.1205 163.979 75.2002C163.978 75.28 163.956 75.3581 163.915 75.4269C163.875 75.4956 163.817 75.5527 163.747 75.5923C163.678 75.632 163.599 75.6528 163.519 75.6528H155.664C155.542 75.6528 155.425 75.6047 155.339 75.5189C155.252 75.4332 155.204 75.3169 155.204 75.1956V75.1741C155.205 75.0636 155.246 74.9571 155.319 74.874C155.392 74.7909 155.493 74.7366 155.603 74.7212C156.884 74.5217 157.626 73.361 157.626 71.9174V57.0233C157.626 55.5287 156.53 55.8031 155.248 55.8825C155.185 55.8862 155.123 55.8771 155.064 55.8558C155.005 55.8345 154.951 55.8014 154.905 55.7586C154.86 55.7159 154.823 55.6643 154.798 55.607C154.774 55.5498 154.761 55.4881 154.761 55.4257V55.2405C154.761 55.1462 154.79 55.0542 154.845 54.9771C154.899 54.9 154.977 54.8416 155.066 54.8099L160.227 52.9787C160.297 52.9539 160.372 52.9463 160.445 52.9565C160.519 52.9667 160.589 52.9944 160.649 53.0372C160.709 53.08 160.758 53.1368 160.792 53.2025C160.825 53.2682 160.842 53.3411 160.842 53.4148L160.793 57.4516H160.927C161.914 56.1442 165.462 52.946 168.781 52.946C171.473 52.946 173.67 54.4868 174.568 56.9615H174.702C175.778 55.0937 178.066 52.946 181.654 52.946C184.883 52.946 188.023 55.2339 188.023 59.8562V72.0428C188.023 73.4872 188.765 74.5452 190.048 74.7243C190.157 74.7393 190.258 74.7934 190.331 74.8764C190.404 74.9595 190.445 75.066 190.445 75.1763V75.3212C190.445 75.3814 190.433 75.441 190.41 75.4967C190.387 75.5523 190.353 75.6029 190.31 75.6454C190.267 75.688 190.216 75.7217 190.16 75.7446C190.104 75.7676 190.044 75.7793 189.984 75.7791Z" fill="white"/>
<path d="M108.014 89.4623H103.791V93.3392H102.74V84.6401H103.791V88.3807H108.014V84.6401H109.064V93.3392H108.014V89.4623Z" fill="#ECA039"/>
<path d="M115.469 84.6401H120.658V85.7217H116.519V88.3934H120.206V89.4496H116.519V92.2582H120.805V93.3392H115.469V84.6401Z" fill="#ECA039"/>
<path d="M128.923 84.6401H129.963L133.303 93.3392H132.2L131.391 91.1646H127.484L126.676 93.3392H125.593L128.923 84.6401ZM131.024 90.1705L129.438 85.9078L127.852 90.1705H131.024Z" fill="#ECA039"/>
<path d="M138.596 84.6401H139.646V92.2582H143.627V93.3392H138.596V84.6401Z" fill="#ECA039"/>
<path d="M149.697 85.7217H147.176V84.6401H153.258V85.7217H150.738V93.3392H149.698L149.697 85.7217Z" fill="#ECA039"/>
<path d="M163.876 89.4623H159.653V93.3392H158.604V84.6401H159.654V88.3807H163.876V84.6401H164.926V93.3392H163.876V89.4623Z" fill="#ECA039"/>
<path d="M170.733 88.9899C170.733 86.4174 172.393 84.5411 174.63 84.5411C175.171 84.5276 175.707 84.6436 176.194 84.8793C176.68 85.1151 177.102 85.4636 177.424 85.8956L176.741 86.6782C176.174 85.97 175.481 85.6469 174.673 85.6469C173.013 85.6469 171.784 87.0635 171.784 88.9899C171.784 90.9164 173.013 92.3326 174.673 92.3326C175.481 92.3326 176.174 91.9973 176.741 91.2889L177.424 92.0717C177.101 92.5066 176.678 92.8578 176.19 93.0959C175.702 93.3339 175.163 93.4518 174.62 93.4395C172.393 93.4388 170.733 91.5621 170.733 88.9899Z" fill="#ECA039"/>
<path d="M185.06 84.6401H186.099L189.439 93.3392H188.336L187.528 91.1646H183.62L182.811 93.3392H181.729L185.06 84.6401ZM187.16 90.1705L185.574 85.9078L183.988 90.1705H187.16Z" fill="#ECA039"/>
<path d="M194.732 84.6401H197.6C199.511 84.6401 200.666 85.7834 200.666 87.6723C200.666 89.0268 200.078 89.984 199.048 90.4189L200.792 93.3396H199.647L198.061 90.6676C197.914 90.6797 197.767 90.6924 197.599 90.6924H195.783V93.3392H194.732L194.732 84.6401ZM197.568 89.6361C198.912 89.6361 199.617 88.9151 199.617 87.6723C199.617 86.4295 198.913 85.7217 197.568 85.7217H195.783V89.6361H197.568Z" fill="#ECA039"/>
<path d="M206.568 84.6401H211.757V85.7217H207.619V88.3934H211.305V89.4496H207.619V92.2582H211.904V93.3392H206.568V84.6401Z" fill="#ECA039"/>
</svg>
